<?xml version="1.0" encoding="UTF-8"?>
<svg width="29px" height="31px" viewBox="0 0 29 31" version="1.1" xmlns="http://www.w3.org/2000/svg" xmlns:xlink="http://www.w3.org/1999/xlink">
    <title>6A9E693F-AC6B-4498-80FA-21CA4EE3E4AD</title>
    <defs>
        <path d="M8.80514452,27.1401886 C9.63357164,27.1401886 10.3051445,27.8117615 10.3051445,28.6401886 C10.3051445,29.4686157 9.63357164,30.1401886 8.80514452,30.1401886 C7.97671739,30.1401886 7.30514452,29.4686157 7.30514452,28.6401886 C7.30514452,27.8117615 7.97671739,27.1401886 8.80514452,27.1401886 Z M21.6264165,27.1401886 C22.4548437,27.1401886 23.1264165,27.8117615 23.1264165,28.6401886 C23.1264165,29.4686157 22.4548437,30.1401886 21.6264165,30.1401886 C20.7979894,30.1401886 20.1264165,29.4686157 20.1264165,28.6401886 C20.1264165,27.8117615 20.7979894,27.1401886 21.6264165,27.1401886 Z M4.63403258,0.140412435 C5.16956513,0.140414759 5.62237417,0.542592633 5.69314621,1.08110052 L8.41859048,21.8180503 L24.3578161,21.8180503 L26.2034087,8.08889689 L10.7258065,8.08889689 C10.1357091,8.08889689 9.65734069,7.6036145 9.65734069,7.00498834 C9.65734069,6.40636218 10.1357091,5.92107979 10.7258065,5.92107979 L27.4274194,5.92107979 C27.7359647,5.92111621 28.0294344,6.05644649 28.2323316,6.29225609 C28.4352287,6.5280657 28.5277465,6.84133481 28.486084,7.15147306 L26.3491525,23.0484435 C26.2769178,23.5854742 25.8247728,23.9858384 25.2904878,23.9858674 L7.48322508,23.9858674 C6.94769253,23.985865 6.49488349,23.5836872 6.42411145,23.0451793 L3.69866718,2.30822953 L1.07258065,2.30822953 C0.482483297,2.30822953 0.00411487903,1.82294715 0.00411487903,1.22432098 C0.00411487903,0.625694823 0.482483297,0.140412435 1.07258065,0.140412435 L4.63403258,0.140412435 Z" id="path-1"></path>
    </defs>
    <g id="Header" stroke="none" stroke-width="1" fill="none" fill-rule="evenodd">
        <g id="001_Hover-State_Nav-Links" transform="translate(-1361.000000, -20.000000)">
            <g id="Color-/-White" transform="translate(1361.000000, 20.000000)">
                <mask id="mask-2" fill="white">
                    <use xlink:href="#path-1"></use>
                </mask>
                <use id="Mask" fill="#000000" fill-rule="nonzero" xlink:href="#path-1"></use>
                <g mask="url(#mask-2)" fill="#333333" id="Rectangle-Copy-3">
                    <rect x="0" y="0" width="28.5" height="30"></rect>
                </g>
            </g>
        </g>
    </g>
</svg>