<?xml version="1.0" encoding="UTF-8"?>
<svg width="22px" height="30px" viewBox="0 0 22 30" version="1.1" xmlns="http://www.w3.org/2000/svg" xmlns:xlink="http://www.w3.org/1999/xlink">
    <title>7205F982-3933-40D7-8E67-B4363BB9D08F</title>
    <defs>
        <path d="M16.446948,19.2775109 C19.8173966,21.210558 21.8929658,24.7828177 21.8914546,28.6480451 C21.8914603,28.9807214 21.7583873,29.2997738 21.5215113,29.5350117 C21.2846353,29.7702495 20.9633608,29.9024025 20.6283673,29.9023973 L1.37163269,29.9023973 C1.03663893,29.9024029 0.715364025,29.7702501 0.47848767,29.5350122 C0.241611314,29.2997744 0.108538071,28.9807217 0.108543731,28.6480451 C0.107032589,24.7828177 2.18260172,21.210558 5.55305038,19.2775109 C8.92349904,17.3444638 13.0764993,17.3444638 16.446948,19.2775109 Z M11,20.3406308 C6.86757629,20.3406308 3.35420827,23.3369595 2.72987821,27.3936929 L19.2701218,27.3936929 C18.6457917,23.3369595 15.1324237,20.3406308 11,20.3406308 Z M13.7335869,0.638522584 C16.4072819,1.73837732 18.1505563,4.32938801 18.1505237,7.20337011 C18.1460043,11.1258878 14.9451088,14.3045734 10.99527,14.3089761 C8.10127011,14.3089458 5.49225058,12.5776731 4.38479345,9.92244805 C3.27733632,7.26722302 3.88953639,4.21094688 5.93592563,2.17875679 C7.98231488,0.146566708 11.0598919,-0.461332148 13.7335869,0.638522584 Z M10.99527,2.60630707 C8.43876467,2.60635119 6.36633534,4.66449323 6.36635015,7.20331522 C6.36636496,9.74213721 8.43881831,11.8002554 10.9953236,11.8002701 C13.551829,11.8002848 15.6243063,9.74219047 15.6243507,7.20336848 C15.6214907,4.66565898 13.5506551,2.60914734 10.99527,2.60630707 Z" id="path-1"></path>
    </defs>
    <g id="Header" stroke="none" stroke-width="1" fill="none" fill-rule="evenodd">
        <g id="000_Hover-State_Nav-Links-Copy" transform="translate(-1328.000000, -21.000000)">
            <g id="Color-/-Blue" transform="translate(1328.000000, 21.000000)">
                <mask id="mask-2" fill="white">
                    <use xlink:href="#path-1"></use>
                </mask>
                <use id="Mask" fill="#000000" fill-rule="nonzero" xlink:href="#path-1"></use>
                <g mask="url(#mask-2)" fill="#333333" id="Rectangle-Copy-3">
                    <rect x="0" y="0" width="22" height="30"></rect>
                </g>
            </g>
        </g>
    </g>
</svg>